<svg id="Layer_1" data-name="Layer 1" xmlns="http://www.w3.org/2000/svg" viewBox="0 0 600 600"><defs><style>.cls-1{fill:#fff;}</style></defs><polygon class="cls-1" points="356.9 261.84 354.27 257.28 300 288.61 246.18 257.54 246.18 195.39 300.45 164.06 297.82 159.5 240.91 192.35 240.91 260.58 300 294.69 356.9 261.84"/><path class="cls-1" d="M300,276.11a15.55,15.55,0,1,0,15.55,15.54A15.56,15.56,0,0,0,300,276.11Z"/><path class="cls-1" d="M300,145.66a15.55,15.55,0,1,0,15.55,15.55A15.57,15.57,0,0,0,300,145.66Z"/><path class="cls-1" d="M259.09,259.06a15.55,15.55,0,1,0-15.55,15.55A15.56,15.56,0,0,0,259.09,259.06Z"/><path class="cls-1" d="M356.46,243.52A15.55,15.55,0,1,0,372,259.06,15.56,15.56,0,0,0,356.46,243.52Z"/><path class="cls-1" d="M259.09,193.87a15.55,15.55,0,1,0-15.55,15.55A15.57,15.57,0,0,0,259.09,193.87Z"/><path class="cls-1" d="M436.13,291.16A23.89,23.89,0,0,0,419,268.24l-.71-.21V184.9l.71-.21a24.1,24.1,0,1,0-30.42-17.64l.17.73-71.64,40.66-.54-.52a24,24,0,1,0,7.47,17.37,24.25,24.25,0,0,0-.6-5.22l-.16-.73L395,178.67l.54.51a23.85,23.85,0,0,0,9.57,5.51l.7.21V268l-.7.21a23.66,23.66,0,0,0-16.42,28.37l.16.73L317,338.84l-.55-.51a23.83,23.83,0,0,0-32.8,0l-.55.51-71.88-41.5.16-.73a23.67,23.67,0,0,0-16.41-28.37l-.71-.21V184.9l.71-.21A23.9,23.9,0,0,0,212,161.77a24.19,24.19,0,0,0-.67-5.45l-.17-.72,71.89-41.51.54.51a24,24,0,1,0-7.67-17.53,23.67,23.67,0,0,0,.68,5.45l.17.73-71.89,41.5-.54-.51A24,24,0,1,0,181,184.69l.71.21V268l-.71.21a24,24,0,1,0,23.38,40.45l.54-.51,71.89,41.5-.17.72a23.82,23.82,0,0,0-.68,5.46,24.07,24.07,0,0,0,48.14,0,23.6,23.6,0,0,0-.68-5.45l-.17-.73,71.89-41.5.55.51a24,24,0,0,0,40.47-17.53Z"/><path class="cls-1" d="M197.83,491.68V430a3,3,0,0,0-.46-2c-.13-.14-.58-.47-2-.47h-9.51c-2,0-2.27.8-2.31,1.68l-.51,6.56-1.6-2.32a14.18,14.18,0,0,0-3.09-3.16,19.12,19.12,0,0,0-3.84-2.26,25.27,25.27,0,0,0-10-2.22,28.54,28.54,0,0,0-13.36,3.05A29.91,29.91,0,0,0,141.4,437a36.42,36.42,0,0,0-6,11.64,46.58,46.58,0,0,0-2,13.68,45.75,45.75,0,0,0,2.18,14.39,27.61,27.61,0,0,0,6.62,11c5,5.25,11.85,7.91,20.46,7.91a22.43,22.43,0,0,0,4.76-.56,36.47,36.47,0,0,0,5.05-1.47,26.21,26.21,0,0,0,4.58-2.22,19.49,19.49,0,0,0,3.64-2.81l1.7-1.71V495a40.73,40.73,0,0,1-.74,8.06,16.13,16.13,0,0,1-2.77,6.45,13,13,0,0,1-5.77,4.22,25.34,25.34,0,0,1-9.15,1.44,34.07,34.07,0,0,1-8.25-1.11,65.63,65.63,0,0,1-8.27-2.71,5.2,5.2,0,0,0-1.78-.5s-.52.11-1.21,1.9l-2,6.34-.29.88a2.2,2.2,0,0,0-.09.68c0,.53.18,1.3,1.72,2a49.77,49.77,0,0,0,10.38,3.32A54.14,54.14,0,0,0,164.68,527c11.74,0,20.29-3,25.39-9S197.83,503.1,197.83,491.68ZM182.39,475.9l-.21.27a19.33,19.33,0,0,1-6.76,5.1,20,20,0,0,1-8.87,2.2,17.63,17.63,0,0,1-5.88-1,13.44,13.44,0,0,1-5-3.17,17.42,17.42,0,0,1-4.82-8.33,38.39,38.39,0,0,1-1.25-9.69A36.93,36.93,0,0,1,151,451a20.11,20.11,0,0,1,5-8.75,17.77,17.77,0,0,1,5-3.21,16,16,0,0,1,6.38-1.23,17.44,17.44,0,0,1,8.47,2.21,19.25,19.25,0,0,1,6.3,5.25l.2.27Z"/><path class="cls-1" d="M267.71,434a26,26,0,0,0-8.75-6.1,29,29,0,0,0-11.56-2.23,37.75,37.75,0,0,0-14.25,2.6,31.67,31.67,0,0,0-10.9,7.26,32.94,32.94,0,0,0-7.06,11.26,40.31,40.31,0,0,0-2.53,14.49,43.71,43.71,0,0,0,2.39,14.93,31.69,31.69,0,0,0,6.84,11.26,29.89,29.89,0,0,0,11,7.17,41,41,0,0,0,14.85,2.53,75.31,75.31,0,0,0,12.08-1.07,45.76,45.76,0,0,0,11.72-3.45c.78-.35,1.71-.89,1.71-1.53a13.71,13.71,0,0,0-.25-1.47l-2-7.36c-.12-.43-.32-.9-.55-.92h-.22a4.35,4.35,0,0,0-1.51.3,58.32,58.32,0,0,1-8.8,2.56,44.83,44.83,0,0,1-9.28,1c-6,0-11-1.84-14.88-5.46A21.8,21.8,0,0,1,229,465.56l-.12-1.1h43.34c2.08,0,2.85-.37,3.13-.59s.62-.69.62-2.59v-2.16a54.31,54.31,0,0,0-1.7-13.73A25.47,25.47,0,0,0,267.71,434Zm-6.92,21.07H229.1l.16-1.13a24.46,24.46,0,0,1,1.73-6.31,18.36,18.36,0,0,1,3.5-5.41,16.75,16.75,0,0,1,5.21-3.76,15.82,15.82,0,0,1,6.69-1.38A13.53,13.53,0,0,1,257,441.82a14.81,14.81,0,0,1,2.71,5,22.29,22.29,0,0,1,1.05,5.71Z"/><path class="cls-1" d="M329.41,426.21a13.5,13.5,0,0,0-2-.4,13.88,13.88,0,0,0-1.81-.14,17.78,17.78,0,0,0-9.56,2.38,28.09,28.09,0,0,0-7.09,6.47l-1.7,2.14-.23-7.37c0-.61,0-1.75-2.6-1.75h-9.23a3.47,3.47,0,0,0-2,.54,2.65,2.65,0,0,0-.59,2.07v62.69c0,1.85.71,2.6,2.46,2.6h10.52c1.75,0,2.46-.75,2.46-2.6V446.66l.23-.28a20.19,20.19,0,0,1,6.74-5.38,17.79,17.79,0,0,1,7.86-1.9,16.72,16.72,0,0,1,4.09.45,2.39,2.39,0,0,0,.44,0c.29,0,.76,0,1-1.09.67-4.23,1.13-7.15,1.37-8.79s.34-2.42.35-2.59C330.13,426.68,330,426.39,329.41,426.21Z"/><path class="cls-1" d="M404.33,485.48h-1.15a3.33,3.33,0,0,1-2.49-.93c-.75-.87-1.11-2.41-1.11-4.82v-50c0-1.57-.56-2.18-2-2.18H387.47c-1.33,0-1.9.48-2,1.68l-.49,6.6-1.6-2.2a18.45,18.45,0,0,0-7.32-5.73,24.4,24.4,0,0,0-10.32-2.22A28.07,28.07,0,0,0,344.83,435a34.69,34.69,0,0,0-6.71,11.56,47.42,47.42,0,0,0-2.54,16.16,50.56,50.56,0,0,0,1.7,13.21,31.88,31.88,0,0,0,5.24,11,25.72,25.72,0,0,0,8.88,7.5,27.39,27.39,0,0,0,12.73,2.77,21.8,21.8,0,0,0,5.85-.83,33.85,33.85,0,0,0,5.74-2.16,28.19,28.19,0,0,0,5-3.14,15.34,15.34,0,0,0,3.45-3.64l.3-.46h1.66l.15.81a9.43,9.43,0,0,0,3.14,5.56c1.62,1.41,4.21,2.13,7.7,2.13H404c1.57,0,1.89-.66,1.89-1.74v-6.77C405.93,486,405.67,485.48,404.33,485.48Zm-20.18-11.14-.11.21a18.53,18.53,0,0,1-2.43,3.65,17.63,17.63,0,0,1-3.66,3.29,22.21,22.21,0,0,1-4.68,2.41,15.11,15.11,0,0,1-5.4,1,13.82,13.82,0,0,1-7.44-1.95,15.73,15.73,0,0,1-5.08-5.15,23.2,23.2,0,0,1-2.87-7.38,42.9,42.9,0,0,1-.88-8.85,35.1,35.1,0,0,1,1.34-10.17,22.16,22.16,0,0,1,3.7-7.39,16,16,0,0,1,5.53-4.52,15.08,15.08,0,0,1,6.71-1.55,18.38,18.38,0,0,1,8.61,2.21,17.58,17.58,0,0,1,6.48,5.58l.18.25Z"/><path class="cls-1" d="M464.42,485.22a19.42,19.42,0,0,0,2.18-9.38A15.87,15.87,0,0,0,462.89,465a25.89,25.89,0,0,0-9.36-6.66L440.59,453c-3-1.13-4.95-2.28-6-3.52a7,7,0,0,1-1.69-4.76,7.14,7.14,0,0,1,2.55-5.27c1.67-1.57,4.2-2.36,7.53-2.36a35.39,35.39,0,0,1,7.94,1,56.63,56.63,0,0,1,7.94,2.48,3.71,3.71,0,0,0,1.12.23c.61,0,.88-.22,1.07-.88l2.43-7.73a8.78,8.78,0,0,0,.26-1.2c0-.46-.74-.9-1.14-1.1a46.46,46.46,0,0,0-10.36-3.32,56.88,56.88,0,0,0-10.13-.92,35.87,35.87,0,0,0-9.18,1.2,25.52,25.52,0,0,0-8.05,3.6,19.42,19.42,0,0,0-5.69,6.1,17,17,0,0,0-2.16,8.71,16.41,16.41,0,0,0,4.06,11.43,25.62,25.62,0,0,0,10.14,6.81l11.39,4.32a23,23,0,0,1,6.86,3.79,7.24,7.24,0,0,1,2.42,5.64,7.43,7.43,0,0,1-3.38,6.45,14.44,14.44,0,0,1-8.28,2.19,36.59,36.59,0,0,1-8.82-1.25,66.76,66.76,0,0,1-9.78-3.32,2.35,2.35,0,0,0-1-.18c-.27,0-.83,0-1.21,1.32l-2.31,7.36a3.38,3.38,0,0,0-.23,1c0,.45.13,1,1.13,1.38a63.9,63.9,0,0,0,10.57,3.55,46.67,46.67,0,0,0,11.22,1.41A38.93,38.93,0,0,0,450,495.83a26.24,26.24,0,0,0,8.55-3.95A19.66,19.66,0,0,0,464.42,485.22Z"/></svg>