<svg id="Layer_1" data-name="Layer 1" xmlns="http://www.w3.org/2000/svg" viewBox="0 0 600 600"><polygon points="300 295.85 239.91 261.15 239.91 191.78 298.19 158.13 301.81 164.43 247.18 195.97 247.18 256.96 300 287.45 354.64 255.91 358.27 262.21 300 295.85"/><path d="M300,275.11a16.55,16.55,0,1,0,16.55,16.54A16.54,16.54,0,0,0,300,275.11Z"/><path d="M300,144.66a16.55,16.55,0,1,0,16.55,16.55A16.55,16.55,0,0,0,300,144.66Z"/><circle cx="243.55" cy="259.06" r="16.55"/><circle cx="356.45" cy="259.06" r="16.55"/><circle cx="243.55" cy="193.87" r="16.55"/><path d="M419.32,267.29V185.64a25.11,25.11,0,1,0-31.68-18.37L317.29,207.2a25.33,25.33,0,1,0,7.15,12.65l70.39-39.94a25,25,0,0,0,10,5.73v81.65A25,25,0,0,0,387,291.16a25.31,25.31,0,0,0,.7,5.68l-70.6,40.76a24.85,24.85,0,0,0-34.18,0l-70.6-40.76a25.31,25.31,0,0,0,.7-5.68,25,25,0,0,0-17.8-23.87V185.64A25,25,0,0,0,213,161.77a25.31,25.31,0,0,0-.7-5.68l70.6-40.76a25,25,0,1,0-8-18.26,25.31,25.31,0,0,0,.7,5.68L205,143.51a25,25,0,1,0-24.35,42.13v81.65A25,25,0,1,0,205,309.42l70.6,40.76a25.07,25.07,0,1,0,48.74,0L395,309.42a25,25,0,1,0,24.35-42.13Z"/><path d="M198.83,491.68q0,17.6-8,26.95T164.68,528a54.65,54.65,0,0,1-10.74-1.08,50.19,50.19,0,0,1-10.59-3.39q-2.31-1-2.31-2.88a3,3,0,0,1,.15-1c.09-.29.19-.58.29-.87l2-6.34c.67-1.73,1.39-2.59,2.16-2.59a6.7,6.7,0,0,1,2.17.57,62.55,62.55,0,0,0,8.14,2.67,32.53,32.53,0,0,0,8,1.08,24.21,24.21,0,0,0,8.79-1.37,12,12,0,0,0,5.33-3.89,15,15,0,0,0,2.59-6.05,38.81,38.81,0,0,0,.72-7.86v-5.77a19.62,19.62,0,0,1-3.81,3,27.93,27.93,0,0,1-4.76,2.31,39.19,39.19,0,0,1-5.19,1.51,23.24,23.24,0,0,1-5,.58q-13.4,0-21.18-8.22A28.29,28.29,0,0,1,134.63,477a48.66,48.66,0,0,1-.14-28.67,37,37,0,0,1,6.12-12A30.58,30.58,0,0,1,150.7,428a29.38,29.38,0,0,1,13.83-3.17,26.21,26.21,0,0,1,10.38,2.3,20.1,20.1,0,0,1,4,2.38,14.93,14.93,0,0,1,3.31,3.39l.29-3.75c.09-1.73,1.2-2.6,3.31-2.6h9.51a3.64,3.64,0,0,1,2.74.8,4,4,0,0,1,.72,2.67Zm-17.44-45.82a18.21,18.21,0,0,0-6-5,16.33,16.33,0,0,0-8-2.09,14.92,14.92,0,0,0-6,1.15,16.39,16.39,0,0,0-4.68,3,19,19,0,0,0-4.76,8.28,35.84,35.84,0,0,0-1.43,10,37,37,0,0,0,1.22,9.44,16.28,16.28,0,0,0,4.54,7.85,12.35,12.35,0,0,0,4.68,3,16.51,16.51,0,0,0,5.55.94,19,19,0,0,0,8.43-2.09,18.43,18.43,0,0,0,6.41-4.83Z"/><path d="M250.57,484.19a43.8,43.8,0,0,0,9.08-.94,56.86,56.86,0,0,0,8.64-2.52,5.2,5.2,0,0,1,2.16-.35c.68,0,1.16.59,1.45,1.65l2,7.35a13,13,0,0,1,.29,1.73c0,1-.77,1.78-2.3,2.45a46.67,46.67,0,0,1-12,3.53,76.42,76.42,0,0,1-12.24,1.08,41.68,41.68,0,0,1-15.21-2.6,30.71,30.71,0,0,1-11.31-7.41,32.5,32.5,0,0,1-7.06-11.61,44.47,44.47,0,0,1-2.45-15.27,41.12,41.12,0,0,1,2.59-14.84,33.94,33.94,0,0,1,7.28-11.61,32.64,32.64,0,0,1,11.24-7.49,38.66,38.66,0,0,1,14.63-2.67,30,30,0,0,1,12,2.31,26.62,26.62,0,0,1,9.08,6.34,26.27,26.27,0,0,1,6.77,11.82,54.87,54.87,0,0,1,1.73,14v2.16c0,1.73-.34,2.86-1,3.38a6.25,6.25,0,0,1-3.74.8H230A20.75,20.75,0,0,0,236.37,479Q241.92,484.21,250.57,484.19Zm9.22-30.12v-1.58a20.81,20.81,0,0,0-1-5.41,13.36,13.36,0,0,0-2.52-4.61,12.46,12.46,0,0,0-9.87-4.39,14.83,14.83,0,0,0-6.27,1.29,15.66,15.66,0,0,0-4.9,3.53,17.26,17.26,0,0,0-3.31,5.12,23.47,23.47,0,0,0-1.66,6.05Z"/><path d="M325.65,424.67a16.22,16.22,0,0,1,4,.58,1.81,1.81,0,0,1,1.44,1.87c0,.2-.12,1.11-.36,2.74s-.7,4.57-1.37,8.79c-.29,1.54-1.16,2.17-2.6,1.88a16,16,0,0,0-3.89-.43,16.71,16.71,0,0,0-7.42,1.8,19,19,0,0,0-6.41,5.11v45.83q0,3.6-3.46,3.6H295.1q-3.47,0-3.46-3.6V430.15c0-1.44.34-2.4,1-2.88a4.36,4.36,0,0,1,2.59-.73h9.23q3.6,0,3.6,2.75l.14,4.61a29,29,0,0,1,7.35-6.7A18.74,18.74,0,0,1,325.65,424.67Z"/><path d="M406.93,493.7c0,1.83-1,2.74-2.89,2.74h-6.91q-5.62,0-8.36-2.38a10.42,10.42,0,0,1-3.46-6.12H385a16.15,16.15,0,0,1-3.67,3.89,29.26,29.26,0,0,1-5.19,3.25,35.79,35.79,0,0,1-5.91,2.23,23,23,0,0,1-6.12.86,28.27,28.27,0,0,1-13.19-2.88,26.66,26.66,0,0,1-9.22-7.79,33,33,0,0,1-5.41-11.3,51.72,51.72,0,0,1-1.73-13.48,48.19,48.19,0,0,1,2.6-16.5,35.43,35.43,0,0,1,6.91-11.89,29,29,0,0,1,21.62-9.66A25.36,25.36,0,0,1,376.45,427a19.37,19.37,0,0,1,7.71,6l.29-3.89a2.67,2.67,0,0,1,3-2.6h10.09c2,0,3,1.07,3,3.18v50q0,3.16.87,4.17a2.32,2.32,0,0,0,1.73.58h1.15c1.73,0,2.6.82,2.6,2.45Zm-23.78-47.41A16.69,16.69,0,0,0,377,441a17.27,17.27,0,0,0-8.14-2.09,14,14,0,0,0-6.27,1.45,14.84,14.84,0,0,0-5.19,4.25,21.27,21.27,0,0,0-3.53,7.05,34.16,34.16,0,0,0-1.29,9.88,41.56,41.56,0,0,0,.86,8.64,22.09,22.09,0,0,0,2.74,7.06A14.73,14.73,0,0,0,361,482.1a12.8,12.8,0,0,0,6.92,1.8,14.16,14.16,0,0,0,5.05-.93,21.1,21.1,0,0,0,4.46-2.31,16.46,16.46,0,0,0,3.46-3.1,18.23,18.23,0,0,0,2.31-3.45Z"/><path d="M467.6,475.84a20.09,20.09,0,0,1-8.43,16.86,27.35,27.35,0,0,1-8.86,4.1,40.14,40.14,0,0,1-10.52,1.37,47.72,47.72,0,0,1-11.46-1.44,65.65,65.65,0,0,1-10.74-3.6,2.42,2.42,0,0,1-1.73-2.3,4.75,4.75,0,0,1,.29-1.31l2.31-7.34c.38-1.35,1.1-2,2.16-2a3.21,3.21,0,0,1,1.44.29,67.54,67.54,0,0,0,9.58,3.24,35.19,35.19,0,0,0,8.58,1.22,13.38,13.38,0,0,0,7.71-2,6.41,6.41,0,0,0,2.95-5.62,6.27,6.27,0,0,0-2.09-4.9,22.16,22.16,0,0,0-6.55-3.6l-11.39-4.32a26.48,26.48,0,0,1-10.52-7.06A17.32,17.32,0,0,1,416,445.28a17.82,17.82,0,0,1,2.3-9.22,20.16,20.16,0,0,1,6-6.41,26.39,26.39,0,0,1,8.36-3.75,37.07,37.07,0,0,1,9.44-1.23,57.56,57.56,0,0,1,10.31.94A46.48,46.48,0,0,1,463,429c1.15.58,1.73,1.25,1.73,2a8.9,8.9,0,0,1-.29,1.45L462,440.24a1.93,1.93,0,0,1-2,1.58,4.56,4.56,0,0,1-1.44-.29,58.44,58.44,0,0,0-7.85-2.45,34.42,34.42,0,0,0-7.71-1c-3.08,0-5.36.69-6.85,2.09a6.14,6.14,0,0,0-2.23,4.54,6.06,6.06,0,0,0,1.44,4.11q1.44,1.65,5.62,3.23l13,5.34a27,27,0,0,1,9.73,6.91A16.78,16.78,0,0,1,467.6,475.84Z"/></svg>